<svg width="132" height="190" viewBox="0 0 132 190" fill="none" xmlns="http://www.w3.org/2000/svg">
<path d="M23.2051 106.309C23.2051 106.309 27.1129 108.229 27.17 109.499C27.2113 110.42 26.1891 111.226 25.2431 111.775C24.278 112.331 23.6368 113.318 23.5606 114.429L23.3225 117.785L50.6453 157.17L59.7529 160.719L78.3236 136L63.7749 100.277L40.1187 101.223L23.2051 106.309Z" fill="#0C0000"/>
<path d="M59.6712 151.935C62.1945 131.266 52.9988 113.137 39.1321 111.445C25.2654 109.752 11.9787 125.135 9.45547 145.805C6.93222 166.475 16.1279 184.603 29.9946 186.296C43.8613 187.988 57.148 172.605 59.6712 151.935Z" fill="#303030"/>
<path d="M120.613 123.772C118.798 138.661 110.611 149.93 100.624 148.711C90.6369 147.492 84.0149 134.435 85.8339 119.547C87.6497 104.659 97.2207 93.5797 107.204 94.7987C117.191 96.0177 122.429 108.887 120.613 123.772Z" fill="#1C1C1C"/>
<path d="M118.277 123.889C116.899 135.175 112.493 143.936 107.598 143.336C102.703 142.74 99.8519 133.108 101.23 121.823C102.607 110.538 107.69 101.878 112.585 102.474C117.48 103.071 119.654 112.607 118.277 123.889Z" fill="#0C0000"/>
<path d="M55.4134 151.884C59.1162 136.171 54.9494 121.744 46.1064 119.66C37.2634 117.576 27.093 128.625 23.3902 144.338C19.6873 160.051 23.8542 174.478 32.6971 176.562C41.5401 178.646 51.7105 167.597 55.4134 151.884Z" fill="#0C0000"/>
<path d="M55.4197 151.892C51.7119 167.606 41.544 178.657 32.7031 176.568C29.808 175.885 27.4113 173.882 25.6367 170.943C26.078 171.079 26.5288 171.177 26.9922 171.244C35.649 172.514 44.4074 161.619 46.5597 146.918C48.2581 135.312 45.3312 124.795 39.7663 120.262C41.8869 119.411 44.0392 119.176 46.1185 119.668C54.9626 121.751 59.1307 136.179 55.4229 151.896L55.4197 151.892Z" fill="#3D3D3D"/>
<path d="M108.943 84.3104V88.7706L123.844 88.6626L122.54 78.9805L115.359 79.3074L108.943 84.3104Z" fill="#444444"/>
<path d="M121.226 63.7188C120.569 66.3568 118.315 74.1914 117.833 75.8771L116.785 77.3596L112.344 75.5596L107.373 63.1887L108.325 62.2363C108.325 62.2363 110.23 59.4872 114.351 59.2777C116.417 59.1698 118.379 59.1952 119.807 59.5856C120.582 60.2809 121.731 61.6999 121.226 63.7188Z" fill="#444444"/>
<path d="M112.643 97.6914L114.272 100.193H118.627L118.795 80L111.773 80.6095L112.643 97.6914Z" fill="#303030"/>
<path d="M102.518 88.9932L118.628 80.0062L118.726 79.3967C118.946 78.0285 117.844 76.8032 116.457 76.8826L113.66 77.0445L105.095 84.2347L102.521 88.9932H102.518Z" fill="#1C1C1C"/>
<path d="M101.348 65.9358L108.325 62.2344L111.138 62.301C114.554 62.3836 117.318 65.0978 117.465 68.5103L117.166 74.2561C117.125 75.0307 116.833 75.7704 116.331 76.364L114.776 78.202L104.306 86.662L101.348 65.9358Z" fill="#0C0000"/>
<path d="M77.2969 26.825L113.721 26.5742L114.184 68.5155L78.792 66.3568L77.2969 26.825Z" fill="#FFBB38"/>
<path d="M131.85 56.0826L114.169 68.5075L113.705 26.5726L132 17.6523L131.85 56.0826Z" fill="#FFC501"/>
<path d="M77.2969 26.8234L97.4897 18.2555L132 17.6523L113.705 26.5726L77.2969 26.8234Z" fill="#FCD363"/>
<path d="M131.966 24.1434L113.767 33.324L113.703 26.5814L131.998 17.6484L131.966 24.1434Z" fill="#FFEDB3"/>
<path d="M114.71 96.0859L101.451 131.542C100.714 133.513 101.717 135.707 103.692 136.437C105.692 137.173 107.908 136.126 108.6 134.11L121.066 97.8668L114.71 96.0891V96.0859Z" fill="#444444"/>
<path d="M100.941 118.067C100.941 118.067 101.817 124.889 101.525 127.143C101.227 129.438 98.519 132.956 98.8904 135.244C99.5729 139.441 105.106 138.149 106.696 137.39C112.649 134.559 112.845 128.8 112.845 128.8L114.01 126.019C114.388 125.121 114.36 124.099 113.934 123.223L109.823 114.75L100.944 118.067H100.941Z" fill="#2B2B2B"/>
<path d="M108.923 66.2112C108.923 66.2112 114.688 75.6807 102.32 90.9246C101.698 91.6928 101.641 92.7721 102.136 93.6324C103.962 96.8101 108.174 104.327 108.733 106.949C109.447 110.308 110.872 114.993 110.872 114.993C110.872 114.993 109.346 120.39 101.403 119.168C101.403 119.168 93.5239 103.245 90.5082 98.5973C86.7401 92.7912 87.0448 89.2294 88.5749 85.9692L81.4482 77.7219L79.3086 64.6875L108.93 66.2081L108.923 66.2112Z" fill="#666666"/>
<path d="M60.5229 37.5735L57.8753 39.3036L52.3771 45.5129C52.3771 45.5129 52.3771 46.2271 49.5264 47.243C46.6758 48.2588 41.9902 56.1029 41.9902 56.1029L50.5423 60.0742L65.7163 44.697L60.5229 37.5703V37.5735Z" fill="#683B28"/>
<path d="M57.8743 39.3086C57.8743 39.3086 61.3376 29.4296 66.4263 28.6138C71.5182 27.8011 90.4571 23.4203 90.4571 23.4203C90.4571 23.4203 93.4538 22.3728 96.6093 24.6139C99.7647 26.8551 100.895 28.363 102.984 35.9437C102.984 35.9437 103.933 42.4577 104.552 44.7274C104.98 46.302 107.231 52.9779 107.974 60.184C107.974 60.184 108.688 64.3584 109.907 67.2123C111.129 70.063 110.11 69.7582 110.11 69.7582C110.11 69.7582 110.618 65.3774 94.1237 66.6028C77.6259 67.825 75.591 67.7234 75.591 67.7234L76.9148 63.7521C76.9148 63.7521 75.1847 59.984 75.6926 57.5428C75.6926 57.5428 67.9532 48.3781 67.5437 43.4894L65.8136 45.4227C65.8136 45.4227 61.4329 39.4134 57.8711 39.3118L57.8743 39.3086Z" fill="#990038"/>
<path d="M90.9002 82.5896L88.6559 88.3703C88.6559 88.3703 88.5956 87.9259 88.2845 87.4053C87.8496 86.6752 86.9067 85.799 84.9068 85.799C82.5164 85.799 74.9929 85.9546 70.6407 86.0466C68.7455 86.0879 67.4535 86.1165 67.4535 86.1165L62.568 80.9294L59.7554 77.939L57.1777 75.1962C57.1777 75.1962 57.6412 74.5233 58.4031 73.5265C60.6443 70.5964 65.4663 64.8411 68.7392 64.9204C73.1295 65.0284 81.9069 63.8506 84.1545 67.7076C86.3988 71.5583 93.1446 76.8057 90.8971 82.5864L90.9002 82.5896Z" fill="#444444"/>
<path d="M72.1016 71.0347C72.1016 70.8918 72.0508 69.9172 71.9969 68.9173C71.9334 67.7459 73.0063 66.8316 74.1555 67.0793L80.1457 68.3776L75.9269 76.5075C75.2221 77.8693 73.7523 78.6566 72.2286 78.4947C72.2286 78.4947 69.1906 77.3328 68.1208 77.2027C66.8605 77.0503 63.0448 77.5138 63.0448 77.5138L59.9688 69.0379L60.2068 67.8983C60.3592 67.1681 60.9814 66.6348 61.7274 66.5904L63.2004 66.5047L63.3337 64.7778C63.3877 64.073 64.0384 63.5651 64.74 63.6857L68.6986 64.3778C69.5112 64.5174 70.0668 65.273 69.9588 66.0952L69.4477 70.022L72.1016 71.0347Z" fill="#333333"/>
<path d="M68.8572 85.019L61.6511 70.4037C60.9114 68.899 58.9845 68.4387 57.6386 69.4355L54.6641 71.6481L57.502 83.0032L68.8572 85.0127V85.019Z" fill="#0C0000"/>
<path d="M71.6765 83.351L70.6448 86.0525L69.5465 88.9286C69.2576 89.6905 68.6894 90.3063 67.9592 90.6587C66.4894 91.3666 63.6959 92.703 60.1595 94.322C54.4264 96.9473 46.7315 100.319 39.5635 102.982C31.6622 105.918 24.3895 107.995 21.0753 107.261C14.2692 105.76 16.8152 95.9029 17.7612 89.0429C19.523 76.2751 25.5926 68.7929 27.8782 66.3739C28.4052 65.8184 29.0909 65.4438 29.8496 65.3105L60.5786 59.8281C60.5786 59.8281 57.2454 66.4057 58.4072 73.5419C58.6294 74.9196 59.0231 76.3132 59.6357 77.6878C59.677 77.7798 59.7183 77.8655 59.7627 77.9512C60.4452 79.3417 61.442 80.2972 62.5753 80.9416C65.172 82.4082 68.4989 82.24 70.5115 81.9479C71.3051 81.8336 71.9432 82.6019 71.6797 83.3574V83.3479L71.6765 83.351Z" fill="#333333"/>
<path d="M44.2824 148.76C44.7195 144.82 43.1131 141.408 40.6944 141.14C38.2758 140.872 35.9608 143.848 35.5238 147.788C35.0867 151.728 36.6931 155.139 39.1117 155.408C41.5304 155.676 43.8454 152.7 44.2824 148.76Z" fill="#A89B76"/>
<path d="M55.8691 107.805L43.1077 148.435C42.9331 148.997 42.9109 149.597 43.0378 150.168L43.1172 150.527C43.2664 151.209 43.841 151.714 44.5362 151.778L47.6694 152.076C48.5614 152.162 49.3741 151.571 49.5741 150.701L58.761 108.601L55.8723 107.808L55.8691 107.805Z" fill="#232522"/>
<path d="M49.5794 149.567C49.7918 148.491 49.568 147.54 49.0795 147.443C48.591 147.347 48.0228 148.142 47.8104 149.218C47.598 150.295 47.8218 151.246 48.3103 151.342C48.7988 151.439 49.367 150.644 49.5794 149.567Z" fill="#FFC501"/>
<path d="M22.8613 117.339L28.423 113.151L37.5243 115.316L41.3495 146.874C41.4384 147.607 41.9971 148.198 42.7209 148.322L43.9526 148.541L56.5902 109.25L30.3023 110.263L22.8613 117.342V117.339Z" fill="#1E1E1E"/>
<path d="M41.3521 150.279C42.2305 150.279 42.9425 149.373 42.9425 148.257C42.9425 147.14 42.2305 146.234 41.3521 146.234C40.4738 146.234 39.7617 147.14 39.7617 148.257C39.7617 149.373 40.4738 150.279 41.3521 150.279Z" fill="#0C0000"/>
<path d="M122.07 62.0232C122 63.7977 121.93 66.8579 121.892 68.6801C121.873 69.6515 121.559 70.5911 121 71.3848L117.832 75.8735C118.318 74.1878 120.572 66.3532 121.226 63.7152C121.73 61.6962 120.584 60.2804 119.807 59.582C121.229 59.9598 122.121 60.7026 122.07 62.0232Z" fill="#FFC501"/>
<path d="M72.8098 134.192C72.8098 134.192 68.6354 135.798 68.5274 138.903C68.4227 142.007 68.0989 146.823 64.0292 150.036C59.9627 153.248 59.75 160.718 59.75 160.718L89.5076 147.788C89.5076 147.788 98.739 145.007 100.282 137.535C100.345 137.217 99.9802 136.989 99.7199 137.182L98.7104 137.938L98.8152 134.833L85.8061 130.151C85.8061 130.151 88.6759 128.125 86.6505 120.027L72.8035 134.189L72.8098 134.192Z" fill="#282828"/>
<path d="M90.0476 108.822C90.0476 108.822 82.7654 139.227 71.5309 143.186C71.5309 143.186 73.7753 121.241 62.7503 113.104C53.3475 106.165 42.5415 103.587 39.5671 102.978C39.056 102.873 38.7734 102.825 38.7734 102.825L51.2968 96.2987C51.2968 96.2987 54.9919 95.2448 60.1631 94.321C68.985 92.756 82.1051 91.5782 88.4445 96.7241C89.7937 97.8193 90.5937 99.0795 91.0254 100.365C92.4095 104.473 90.0508 108.822 90.0508 108.822H90.0476Z" fill="#444444"/>
<path d="M91.2003 101.398C90.8162 100.046 90.0543 98.6999 88.7115 97.4968C82.4038 91.8462 67.6901 93.4176 58.4746 94.5922C62.2205 93.1002 66.2489 90.8431 67.8076 90.1796C68.5822 89.8495 69.2012 89.24 69.5377 88.4686L70.8233 85.5481C75.3311 85.6719 83.1689 85.1798 85.645 85.3005C87.7148 85.3989 88.6449 86.3544 89.0607 87.1321C88.6798 89.6431 88.4258 94.3096 90.1909 96.9984C91.5876 99.1317 91.5686 100.532 91.2035 101.392L91.2003 101.398Z" fill="#303030"/>
<path d="M4.49662 58.9884L15.82 59.3471C15.82 59.3471 18.6802 58.7503 14.0328 53.3855C9.38214 48.0206 2.82684 46.1127 0.801525 48.3793C-1.22379 50.6427 0.801529 56.3663 4.49662 58.9884Z" fill="#333333"/>
<path d="M19.5912 57.0859H11.7344V58.5906H19.5912V57.0859Z" fill="#333333"/>
<path d="M19.5874 57.0831L18.3516 57.6992L26.3347 73.7108L27.5705 73.0947L19.5874 57.0831Z" fill="#333333"/>
<path d="M78.5632 59.2892L67.2399 59.6479C67.2399 59.6479 64.3796 59.0511 69.0271 53.6862C73.6777 48.3214 80.233 46.4135 82.2583 48.6801C84.2836 50.9435 82.2583 56.6671 78.5632 59.2892Z" fill="#333333"/>
<path d="M71.3275 57.3906H63.4707V58.8953H71.3275V57.3906Z" fill="#333333"/>
<path d="M63.4792 57.3868L55.4961 73.3984L56.7319 74.0146L64.715 58.003L63.4792 57.3868Z" fill="#333333"/>
<path d="M121.25 97.5314C121.274 97.4254 119.825 97.0045 118.013 96.5912C116.201 96.1778 114.712 95.9287 114.688 96.0347C114.664 96.1407 116.113 96.5616 117.925 96.9749C119.737 97.3882 121.225 97.6374 121.25 97.5314Z" stroke="black" stroke-width="1.23" stroke-miterlimit="10"/>
<path d="M19.2764 87.5266C19.2764 87.5266 24.0159 91.4344 39.8344 89.3869L40.6947 95.8437C40.6947 95.8437 30.076 104.589 21.9716 102.624C18.1939 101.707 16.5781 97.8024 16.5781 97.8024L17.0226 93.6915L19.2796 87.5234L19.2764 87.5266Z" fill="#FFC501"/>
<path d="M87.3539 30.2964C89.0537 25.721 88.641 21.3467 86.4322 20.5261C84.2233 19.7055 81.0548 22.7494 79.355 27.3248C77.6553 31.9003 78.0679 36.2746 80.2768 37.0952C82.4856 37.9157 85.6541 34.8718 87.3539 30.2964Z" fill="#683B28"/>
<path d="M90.46 23.4188C90.46 23.4188 95.044 5.49569 83.5365 1.32125C72.029 -2.85319 62.7627 3.46085 62.8643 11.9113L62.5278 12.2891C62.2262 12.6288 62.0929 13.089 62.1627 13.5398L63.9246 25.2949C64.0293 25.9933 64.3563 26.6441 64.8578 27.1425L65.5118 27.7964C65.5118 27.7964 67.5593 36.0247 73.2512 35.5358C83.946 34.6184 90.46 23.4156 90.46 23.4156V23.4188Z" fill="#FFC501"/>
<path d="M84.5911 22.9048C79.8738 26.9269 72.344 31.3521 65.5315 27.8729L65.5125 27.803L64.8585 27.1491C64.357 26.6475 64.03 25.9999 63.9252 25.3015L62.1634 13.5433C62.0999 13.1433 62.1983 12.7338 62.4332 12.41C62.6459 13.102 63.9443 14.2099 70.2964 13.8544C75.7121 13.5496 81.4865 12.702 85.2609 12.0703C85.7403 14.2734 86.4704 19.1684 84.5943 22.9112L84.5911 22.9048Z" fill="#FFEDB3"/>
<path d="M89.2392 18.0251C88.9313 18.6092 87.1885 20.6948 84.5918 22.9074C86.4679 19.1647 85.7378 14.2728 85.2584 12.0666C87.8075 11.6348 89.4424 11.3047 89.4424 11.3047C89.4424 11.3047 90.1535 16.2918 89.2392 18.0251Z" fill="black"/>
<path d="M88.4899 15.2091C88.837 15.2091 89.1184 14.5965 89.1184 13.8409C89.1184 13.0852 88.837 12.4727 88.4899 12.4727C88.1427 12.4727 87.8613 13.0852 87.8613 13.8409C87.8613 14.5965 88.1427 15.2091 88.4899 15.2091Z" fill="#FFC501"/>
<path d="M28.168 72.2477L30.06 63.8511C32.2567 55.242 37.7486 52.2579 48.6307 54.5055L61.4048 59.0005L47.0942 73.6666L28.168 72.2477Z" fill="#444444"/>
<path d="M96.8812 72.8731L78.0375 69.2383L77.3359 72.5937L96.0495 76.3936C96.7447 76.5332 97.4145 76.0666 97.5193 75.3682L97.7193 74.0572C97.805 73.5016 97.4336 72.9746 96.8812 72.8699V72.8731Z" fill="#333333"/>
<path d="M100.988 43.2258C100.988 43.2258 102.039 50.0637 98.1501 60.476C94.2614 70.8883 92.9948 69.5232 92.9948 69.5232L92.363 71.7327H89.8393L88.9981 75.2056L85.5252 74.4691L85.1062 70.3645L83.5285 72.9961L83.3158 74.8881L81.6301 76.2563L80.6841 75.942L80.8968 74.05L79.6366 74.7865L79.3223 70.8946L81.3222 66.2662L86.7918 66.6852L90.8964 54.1651L91.3155 45.9591L100.994 43.2227L100.988 43.2258Z" fill="#683B28"/>
<path d="M91.2886 46.8453C91.2886 46.8453 95.8186 43.8708 101.907 45.0041L101.056 34.668L88.7363 38.0647L91.2854 46.8421L91.2886 46.8453Z" fill="#990038"/>
<path d="M101.102 44.8906V46.5001L102.568 45.2874C102.568 45.2874 102.181 45.0335 101.102 44.8938V44.8906Z" fill="#003F2B"/>
</svg>
