<svg width="242" height="234" viewBox="0 0 242 234" fill="none" xmlns="http://www.w3.org/2000/svg">
<path d="M70.3416 126.173L59.6632 232.656C59.4608 234.666 60.9256 236.457 62.9331 236.663L146.224 245.198C147.933 245.373 149.448 244.105 149.578 242.39L157.959 130.548L74.8908 122.442C72.605 122.22 70.5722 123.887 70.3416 126.17V126.173Z" fill="#D8BE73"/>
<path d="M78.2942 120.061L158.585 127.82C161.512 128.103 163.661 130.711 163.378 133.639L153.117 239.81C152.914 241.912 151.042 243.457 148.937 243.253L66.0499 235.243C63.59 235.005 61.7875 232.817 62.0252 230.357L72.1995 125.079C72.4956 122.014 75.2242 119.764 78.2915 120.06L78.2942 120.061Z" fill="#FFC501"/>
<path d="M153.074 240.127C152.892 242.058 151.171 243.475 149.231 243.293L65.0829 235.153C63.1513 234.97 61.7343 233.25 61.9255 231.312L147.139 239.348L153.091 239.91L153.072 240.13L153.074 240.127Z" fill="#E2A700"/>
<path d="M153.092 239.908L147.964 239.425C147.511 239.382 147.179 238.978 147.227 238.525L158.822 127.754L162.227 128.749C163.127 129.469 163.664 130.608 163.549 131.842L153.095 239.908H153.092Z" fill="#E2A700"/>
<path d="M161.846 148.202C162.03 146.632 161.152 145.239 159.886 145.091C158.62 144.943 157.445 146.095 157.261 147.665C157.077 149.235 157.954 150.628 159.22 150.776C160.487 150.925 161.662 149.772 161.846 148.202Z" fill="#CC9200"/>
<path d="M154.096 223.761C154.28 222.191 153.402 220.798 152.136 220.649C150.87 220.501 149.695 221.654 149.511 223.224C149.327 224.794 150.204 226.187 151.47 226.335C152.737 226.483 153.912 225.331 154.096 223.761Z" fill="#CC9200"/>
<path d="M156.526 198.358C156.71 196.788 155.832 195.395 154.566 195.247C153.3 195.099 152.124 196.251 151.94 197.821C151.756 199.391 152.634 200.784 153.9 200.933C155.166 201.081 156.342 199.928 156.526 198.358Z" fill="#CC9200"/>
<path d="M158.883 173.507C159.067 171.937 158.19 170.544 156.923 170.395C155.657 170.247 154.482 171.4 154.298 172.97C154.114 174.54 154.991 175.933 156.257 176.081C157.524 176.229 158.699 175.077 158.883 173.507Z" fill="#CC9200"/>
<path d="M78.3954 130.291C79.9761 130.291 81.2576 129.009 81.2576 127.429C81.2576 125.848 79.9761 124.566 78.3954 124.566C76.8147 124.566 75.5332 125.848 75.5332 127.429C75.5332 129.009 76.8147 130.291 78.3954 130.291Z" fill="#FFD45A"/>
<path d="M93.7587 131.76C95.3394 131.76 96.6209 130.478 96.6209 128.897C96.6209 127.317 95.3394 126.035 93.7587 126.035C92.1779 126.035 90.8965 127.317 90.8965 128.897C90.8965 130.478 92.1779 131.76 93.7587 131.76Z" fill="#FFD45A"/>
<path d="M109.122 133.224C110.703 133.224 111.984 131.943 111.984 130.362C111.984 128.781 110.703 127.5 109.122 127.5C107.541 127.5 106.26 128.781 106.26 130.362C106.26 131.943 107.541 133.224 109.122 133.224Z" fill="#FFD45A"/>
<path d="M124.483 134.689C126.064 134.689 127.345 133.408 127.345 131.827C127.345 130.246 126.064 128.965 124.483 128.965C122.903 128.965 121.621 130.246 121.621 131.827C121.621 133.408 122.903 134.689 124.483 134.689Z" fill="#FFD45A"/>
<path d="M139.847 136.158C141.427 136.158 142.709 134.877 142.709 133.296C142.709 131.715 141.427 130.434 139.847 130.434C138.266 130.434 136.984 131.715 136.984 133.296C136.984 134.877 138.266 136.158 139.847 136.158Z" fill="#FFD45A"/>
<path d="M155.21 137.627C156.791 137.627 158.072 136.345 158.072 134.765C158.072 133.184 156.791 131.902 155.21 131.902C153.629 131.902 152.348 133.184 152.348 134.765C152.348 136.345 153.629 137.627 155.21 137.627Z" fill="#FFD45A"/>
<path d="M75.4735 155.263C77.0543 155.263 78.3357 153.982 78.3357 152.401C78.3357 150.821 77.0543 149.539 75.4735 149.539C73.8928 149.539 72.6113 150.821 72.6113 152.401C72.6113 153.982 73.8928 155.263 75.4735 155.263Z" fill="#FFD45A"/>
<path d="M90.8349 156.728C92.4156 156.728 93.6971 155.447 93.6971 153.866C93.6971 152.285 92.4156 151.004 90.8349 151.004C89.2541 151.004 87.9727 152.285 87.9727 153.866C87.9727 155.447 89.2541 156.728 90.8349 156.728Z" fill="#FFD45A"/>
<path d="M106.198 158.197C107.779 158.197 109.06 156.916 109.06 155.335C109.06 153.754 107.779 152.473 106.198 152.473C104.617 152.473 103.336 153.754 103.336 155.335C103.336 156.916 104.617 158.197 106.198 158.197Z" fill="#FFD45A"/>
<path d="M121.559 159.662C123.14 159.662 124.422 158.38 124.422 156.8C124.422 155.219 123.14 153.938 121.559 153.938C119.979 153.938 118.697 155.219 118.697 156.8C118.697 158.38 119.979 159.662 121.559 159.662Z" fill="#FFD45A"/>
<path d="M136.923 161.131C138.503 161.131 139.785 159.849 139.785 158.268C139.785 156.688 138.503 155.406 136.923 155.406C135.342 155.406 134.061 156.688 134.061 158.268C134.061 159.849 135.342 161.131 136.923 161.131Z" fill="#FFD45A"/>
<path d="M152.284 162.599C153.865 162.599 155.146 161.318 155.146 159.737C155.146 158.156 153.865 156.875 152.284 156.875C150.703 156.875 149.422 158.156 149.422 159.737C149.422 161.318 150.703 162.599 152.284 162.599Z" fill="#FFD45A"/>
<path d="M72.5516 180.236C74.1324 180.236 75.4139 178.955 75.4139 177.374C75.4139 175.793 74.1324 174.512 72.5516 174.512C70.9709 174.512 69.6895 175.793 69.6895 177.374C69.6895 178.955 70.9709 180.236 72.5516 180.236Z" fill="#FFD45A"/>
<path d="M87.913 181.705C89.4937 181.705 90.7752 180.423 90.7752 178.843C90.7752 177.262 89.4937 175.98 87.913 175.98C86.3322 175.98 85.0508 177.262 85.0508 178.843C85.0508 180.423 86.3322 181.705 87.913 181.705Z" fill="#FFD45A"/>
<path d="M103.276 183.166C104.857 183.166 106.138 181.884 106.138 180.304C106.138 178.723 104.857 177.441 103.276 177.441C101.696 177.441 100.414 178.723 100.414 180.304C100.414 181.884 101.696 183.166 103.276 183.166Z" fill="#FFD45A"/>
<path d="M118.64 184.638C120.22 184.638 121.502 183.357 121.502 181.776C121.502 180.196 120.22 178.914 118.64 178.914C117.059 178.914 115.777 180.196 115.777 181.776C115.777 183.357 117.059 184.638 118.64 184.638Z" fill="#FFD45A"/>
<path d="M134.001 186.103C135.582 186.103 136.863 184.822 136.863 183.241C136.863 181.66 135.582 180.379 134.001 180.379C132.42 180.379 131.139 181.66 131.139 183.241C131.139 184.822 132.42 186.103 134.001 186.103Z" fill="#FFD45A"/>
<path d="M149.362 187.572C150.943 187.572 152.224 186.291 152.224 184.71C152.224 183.129 150.943 181.848 149.362 181.848C147.781 181.848 146.5 183.129 146.5 184.71C146.5 186.291 147.781 187.572 149.362 187.572Z" fill="#FFD45A"/>
<path d="M69.6259 205.209C71.2066 205.209 72.4881 203.927 72.4881 202.347C72.4881 200.766 71.2066 199.484 69.6259 199.484C68.0451 199.484 66.7637 200.766 66.7637 202.347C66.7637 203.927 68.0451 205.209 69.6259 205.209Z" fill="#FFD45A"/>
<path d="M84.9892 206.674C86.5699 206.674 87.8514 205.392 87.8514 203.811C87.8514 202.231 86.5699 200.949 84.9892 200.949C83.4084 200.949 82.127 202.231 82.127 203.811C82.127 205.392 83.4084 206.674 84.9892 206.674Z" fill="#FFD45A"/>
<path d="M100.352 208.142C101.933 208.142 103.215 206.861 103.215 205.28C103.215 203.699 101.933 202.418 100.352 202.418C98.7717 202.418 97.4902 203.699 97.4902 205.28C97.4902 206.861 98.7717 208.142 100.352 208.142Z" fill="#FFD45A"/>
<path d="M115.714 209.607C117.295 209.607 118.576 208.326 118.576 206.745C118.576 205.164 117.295 203.883 115.714 203.883C114.133 203.883 112.852 205.164 112.852 206.745C112.852 208.326 114.133 209.607 115.714 209.607Z" fill="#FFD45A"/>
<path d="M131.077 211.076C132.658 211.076 133.939 209.795 133.939 208.214C133.939 206.633 132.658 205.352 131.077 205.352C129.496 205.352 128.215 206.633 128.215 208.214C128.215 209.795 129.496 211.076 131.077 211.076Z" fill="#FFD45A"/>
<path d="M146.44 212.545C148.021 212.545 149.303 211.263 149.303 209.683C149.303 208.102 148.021 206.82 146.44 206.82C144.86 206.82 143.578 208.102 143.578 209.683C143.578 211.263 144.86 212.545 146.44 212.545Z" fill="#FFD45A"/>
<path d="M66.704 230.181C68.2847 230.181 69.5662 228.9 69.5662 227.319C69.5662 225.738 68.2847 224.457 66.704 224.457C65.1232 224.457 63.8418 225.738 63.8418 227.319C63.8418 228.9 65.1232 230.181 66.704 230.181Z" fill="#FFD45A"/>
<path d="M82.0653 231.646C83.6461 231.646 84.9275 230.365 84.9275 228.784C84.9275 227.203 83.6461 225.922 82.0653 225.922C80.4846 225.922 79.2031 227.203 79.2031 228.784C79.2031 230.365 80.4846 231.646 82.0653 231.646Z" fill="#FFD45A"/>
<path d="M97.4286 233.115C99.0093 233.115 100.291 231.834 100.291 230.253C100.291 228.672 99.0093 227.391 97.4286 227.391C95.8479 227.391 94.5664 228.672 94.5664 230.253C94.5664 231.834 95.8479 233.115 97.4286 233.115Z" fill="#FFD45A"/>
<path d="M112.792 234.58C114.373 234.58 115.654 233.298 115.654 231.718C115.654 230.137 114.373 228.855 112.792 228.855C111.211 228.855 109.93 230.137 109.93 231.718C109.93 233.298 111.211 234.58 112.792 234.58Z" fill="#FFD45A"/>
<path d="M128.153 236.049C129.734 236.049 131.015 234.767 131.015 233.186C131.015 231.606 129.734 230.324 128.153 230.324C126.572 230.324 125.291 231.606 125.291 233.186C125.291 234.767 126.572 236.049 128.153 236.049Z" fill="#FFD45A"/>
<path d="M143.516 237.517C145.097 237.517 146.379 236.236 146.379 234.655C146.379 233.074 145.097 231.793 143.516 231.793C141.936 231.793 140.654 233.074 140.654 234.655C140.654 236.236 141.936 237.517 143.516 237.517Z" fill="#FFD45A"/>
<path d="M84.4657 143.658C86.0465 143.658 87.3279 142.377 87.3279 140.796C87.3279 139.215 86.0465 137.934 84.4657 137.934C82.885 137.934 81.6035 139.215 81.6035 140.796C81.6035 142.377 82.885 143.658 84.4657 143.658Z" fill="#FFD45A"/>
<path d="M99.829 145.127C101.41 145.127 102.691 143.845 102.691 142.265C102.691 140.684 101.41 139.402 99.829 139.402C98.2483 139.402 96.9668 140.684 96.9668 142.265C96.9668 143.845 98.2483 145.127 99.829 145.127Z" fill="#FFD45A"/>
<path d="M115.192 146.592C116.773 146.592 118.054 145.31 118.054 143.729C118.054 142.149 116.773 140.867 115.192 140.867C113.612 140.867 112.33 142.149 112.33 143.729C112.33 145.31 113.612 146.592 115.192 146.592Z" fill="#FFD45A"/>
<path d="M130.554 148.06C132.134 148.06 133.416 146.779 133.416 145.198C133.416 143.617 132.134 142.336 130.554 142.336C128.973 142.336 127.691 143.617 127.691 145.198C127.691 146.779 128.973 148.06 130.554 148.06Z" fill="#FFD45A"/>
<path d="M145.917 149.529C147.498 149.529 148.779 148.248 148.779 146.667C148.779 145.086 147.498 143.805 145.917 143.805C144.336 143.805 143.055 145.086 143.055 146.667C143.055 148.248 144.336 149.529 145.917 149.529Z" fill="#FFD45A"/>
<path d="M81.5419 168.627C83.1226 168.627 84.4041 167.345 84.4041 165.765C84.4041 164.184 83.1226 162.902 81.5419 162.902C79.9611 162.902 78.6797 164.184 78.6797 165.765C78.6797 167.345 79.9611 168.627 81.5419 168.627Z" fill="#FFD45A"/>
<path d="M96.9052 170.099C98.4859 170.099 99.7674 168.818 99.7674 167.237C99.7674 165.656 98.4859 164.375 96.9052 164.375C95.3244 164.375 94.043 165.656 94.043 167.237C94.043 168.818 95.3244 170.099 96.9052 170.099Z" fill="#FFD45A"/>
<path d="M112.266 171.564C113.847 171.564 115.129 170.283 115.129 168.702C115.129 167.121 113.847 165.84 112.266 165.84C110.686 165.84 109.404 167.121 109.404 168.702C109.404 170.283 110.686 171.564 112.266 171.564Z" fill="#FFD45A"/>
<path d="M127.63 173.033C129.211 173.033 130.492 171.752 130.492 170.171C130.492 168.59 129.211 167.309 127.63 167.309C126.049 167.309 124.768 168.59 124.768 170.171C124.768 171.752 126.049 173.033 127.63 173.033Z" fill="#FFD45A"/>
<path d="M142.993 174.498C144.574 174.498 145.855 173.216 145.855 171.636C145.855 170.055 144.574 168.773 142.993 168.773C141.412 168.773 140.131 170.055 140.131 171.636C140.131 173.216 141.412 174.498 142.993 174.498Z" fill="#FFD45A"/>
<path d="M78.622 193.603C80.2027 193.603 81.4842 192.322 81.4842 190.741C81.4842 189.16 80.2027 187.879 78.622 187.879C77.0412 187.879 75.7598 189.16 75.7598 190.741C75.7598 192.322 77.0412 193.603 78.622 193.603Z" fill="#FFD45A"/>
<path d="M93.9833 195.068C95.564 195.068 96.8455 193.787 96.8455 192.206C96.8455 190.625 95.564 189.344 93.9833 189.344C92.4025 189.344 91.1211 190.625 91.1211 192.206C91.1211 193.787 92.4025 195.068 93.9833 195.068Z" fill="#FFD45A"/>
<path d="M109.345 196.537C110.925 196.537 112.207 195.255 112.207 193.675C112.207 192.094 110.925 190.812 109.345 190.812C107.764 190.812 106.482 192.094 106.482 193.675C106.482 195.255 107.764 196.537 109.345 196.537Z" fill="#FFD45A"/>
<path d="M124.706 198.006C126.287 198.006 127.568 196.724 127.568 195.143C127.568 193.563 126.287 192.281 124.706 192.281C123.125 192.281 121.844 193.563 121.844 195.143C121.844 196.724 123.125 198.006 124.706 198.006Z" fill="#FFD45A"/>
<path d="M140.069 199.471C141.65 199.471 142.931 198.189 142.931 196.608C142.931 195.028 141.65 193.746 140.069 193.746C138.488 193.746 137.207 195.028 137.207 196.608C137.207 198.189 138.488 199.471 140.069 199.471Z" fill="#FFD45A"/>
<path d="M75.6981 218.576C77.2789 218.576 78.5603 217.295 78.5603 215.714C78.5603 214.133 77.2789 212.852 75.6981 212.852C74.1174 212.852 72.8359 214.133 72.8359 215.714C72.8359 217.295 74.1174 218.576 75.6981 218.576Z" fill="#FFD45A"/>
<path d="M91.0595 220.041C92.6402 220.041 93.9217 218.759 93.9217 217.179C93.9217 215.598 92.6402 214.316 91.0595 214.316C89.4787 214.316 88.1973 215.598 88.1973 217.179C88.1973 218.759 89.4787 220.041 91.0595 220.041Z" fill="#FFD45A"/>
<path d="M106.423 221.51C108.003 221.51 109.285 220.228 109.285 218.647C109.285 217.067 108.003 215.785 106.423 215.785C104.842 215.785 103.561 217.067 103.561 218.647C103.561 220.228 104.842 221.51 106.423 221.51Z" fill="#FFD45A"/>
<path d="M121.784 222.978C123.365 222.978 124.646 221.697 124.646 220.116C124.646 218.535 123.365 217.254 121.784 217.254C120.203 217.254 118.922 218.535 118.922 220.116C118.922 221.697 120.203 222.978 121.784 222.978Z" fill="#FFD45A"/>
<path d="M137.147 224.443C138.728 224.443 140.01 223.162 140.01 221.581C140.01 220 138.728 218.719 137.147 218.719C135.567 218.719 134.285 220 134.285 221.581C134.285 223.162 135.567 224.443 137.147 224.443Z" fill="#FFD45A"/>
<path d="M110.694 123.254L123.551 124.497L112.912 234.064C112.912 234.064 112.687 236.336 112.538 239.536L99.9336 238.315L110.691 123.254H110.694Z" fill="#F47840"/>
<path d="M64.084 180.559C64.084 180.559 66.8815 179.62 69.9433 179.865C73.0052 180.11 147.377 187.549 147.377 187.549L148.536 174.219L66.1168 165.492L64.084 180.559Z" fill="#F47840"/>
<path d="M108.562 172.05L112.867 173.517C112.867 173.517 109.082 179.961 101.483 180.172C96.0478 180.324 76.9121 173.579 76.9121 173.579L83.3956 162.906L108.562 172.05Z" fill="#DB5A21"/>
<path d="M116.691 173.209L112.164 173.642C112.164 173.642 113.536 181.889 121.85 183.247C129.284 184.461 147.413 179.01 147.413 179.01L143.288 170.125L116.691 173.209Z" fill="#DB5A21"/>
<path d="M59.0172 163.41C59.0172 163.41 59.0425 169.376 58.6151 173.029C58.3649 175.174 57.946 176.895 57.6423 177.949C57.4315 178.677 56.9872 179.313 56.3771 179.76L51.8392 183.077L41.9199 181.373L49.1879 167.138L59.02 163.41H59.0172Z" fill="#4C1809"/>
<path d="M47.245 175.069C50.3406 174.285 52.632 174.923 55.2327 176.68C54.9178 176.529 54.6057 176.377 54.2852 176.236C53.3461 175.806 52.3733 175.401 51.3724 175.154C50.0285 174.861 48.6114 174.951 47.2422 175.069H47.245Z" fill="#380E05"/>
<path d="M80.8669 160.293L73.9785 164.252C73.9785 164.252 78.9438 169.152 82.3711 171.106C85.7984 173.058 97.7224 179.862 103.25 179.209C109.115 178.518 110.315 175.906 110.315 175.906L80.8669 160.296V160.293Z" fill="#290507"/>
<path d="M18.2174 204.368C16.1481 202.436 15.4649 201.348 15.493 200.879C15.5352 200.187 18.2596 200.938 18.2596 200.938L18.2174 204.368Z" fill="#029E62"/>
<path d="M47.5096 217.369C47.1554 217.358 46.475 217.558 45.6934 217.76L47.4759 215.469C47.5771 216.149 47.5856 216.779 47.5096 217.369Z" fill="#029E62"/>
<path d="M85.6599 164.99L76.0302 179.453L70.2552 186.62L65.9057 195.263L51.5975 209.568L38.861 227.832L17.8359 218.841L18.9859 171.474C19.0477 168.927 20.6813 166.683 23.0852 165.842L33.0045 162.373L42.7775 158.288L50.2226 153.781C51.634 152.926 53.3407 152.709 54.9208 153.185L66.1193 156.544C66.5411 156.671 66.9741 156.755 67.4127 156.795L78.8502 157.857C78.8502 157.857 80.0564 158.108 79.3338 159.651C78.6112 161.192 71.9253 165.831 71.9253 165.831L58.8767 164.141C58.1316 164.046 57.4203 164.487 57.1785 165.196C57.0042 165.702 56.6808 166.143 56.2535 166.461L48.5047 172.216L48.5132 173.425C48.5188 174.049 48.3332 174.657 47.9818 175.171C46.8825 176.777 44.487 180.3 44.4645 180.505C44.4336 180.772 55.7165 183.176 57.9854 181.542C60.2544 179.912 70.0584 167.144 70.0584 167.144C70.0584 167.144 74.197 162.66 77.5709 163.143C80.9477 163.627 85.6655 164.993 85.6655 164.993L85.6599 164.99Z" fill="#662B15"/>
<path d="M85.1863 162.366L84.565 166.682L82.8864 169.224C82.8864 169.224 81.8827 166.479 79.9652 165.712C78.0477 164.944 71.9297 165.476 71.9297 165.476L75.7141 163.046L85.1835 162.363L85.1863 162.366Z" fill="#56200F"/>
<path d="M42.7798 158.281C39.9176 161.059 36.9374 163.71 33.8418 166.227C36.7012 163.449 39.6871 160.798 42.7798 158.281Z" fill="#4C1809"/>
<path d="M47.5233 217.264C47.1859 220.363 44.7117 222.255 43.4549 223.244C41.7848 224.572 43.0866 227.406 42.0463 230.321C41.0004 233.237 38.4447 233.167 35.7343 236.355C33.0295 239.538 31.306 247.275 31.306 247.275C31.306 247.275 29.9733 251.672 15.3475 245.931C0.727195 240.196 0.0299223 234.215 0.0299223 234.215C-0.431178 231.131 4.56783 226.34 6.00174 224.057C7.43565 221.774 6.28571 216.618 7.75336 214.11C9.21538 211.593 13.8995 209.459 14.4196 207.997C14.9398 206.544 15.488 200.887 15.488 200.887C15.488 200.887 16.2978 202.841 21.0465 206.265C26.7625 210.387 34.4916 214.765 38.2254 215.788C41.4334 216.668 46.6151 217.365 47.5261 217.267L47.5233 217.264Z" fill="#990038"/>
<path d="M113.064 172.924C113.064 172.924 82.2966 146.169 80.8627 154.643C80.8374 154.798 80.5816 158.413 79.4963 159.69C78.9818 160.294 75.0371 163.502 75.0371 163.502C75.0371 163.502 79.485 161.683 82.381 165.344C85.2769 169.007 97.5664 180.414 105.343 178.333C113.12 176.253 113.067 172.924 113.067 172.924H113.064Z" fill="#FF884D"/>
<path d="M166.758 176.027C166.758 176.027 165.358 181.825 164.928 185.48C164.678 187.625 164.686 189.396 164.739 190.493C164.776 191.249 165.06 191.969 165.552 192.548L169.201 196.822L179.244 197.454L175.46 181.926L166.755 176.027H166.758Z" fill="#4C1809"/>
<path d="M175.522 190.087C174.22 189.657 172.86 189.241 171.485 189.215C170.456 189.224 169.415 189.395 168.4 189.595C168.057 189.657 167.717 189.736 167.377 189.809C170.323 188.701 172.685 188.608 175.522 190.087Z" fill="#380E05"/>
<path d="M146 167.812L152.009 173.385C152.009 173.385 146.045 177.006 142.261 178.114C138.477 179.222 126.033 183.262 120.291 181.272C114.601 179.298 112.857 174.302 112.857 174.302L146 167.812Z" fill="#290507"/>
<path d="M196.998 225.299C199.458 223.896 200.375 222.997 200.453 222.533C200.572 221.849 197.749 221.951 197.749 221.951L196.998 225.296V225.299Z" fill="#029E62"/>
<path d="M165.492 231.181C165.838 231.255 166.454 231.603 167.168 231.98L165.965 229.34C165.709 229.978 165.557 230.588 165.492 231.181Z" fill="#029E62"/>
<path d="M140.468 171.414L146.499 187.707L150.466 196.016L152.704 205.429L163.323 222.65L171.502 243.36L194.034 239.463L203.846 193.111C204.375 190.617 203.304 188.059 201.159 186.687L192.308 181.021L183.741 174.791L177.538 168.687C176.363 167.531 174.752 166.924 173.105 167.023L161.434 167.706C160.995 167.731 160.554 167.714 160.118 167.652L148.745 166.047C148.745 166.047 147.513 166.013 147.862 167.68C148.208 169.348 153.643 175.404 153.643 175.404L166.728 176.77C167.476 176.849 168.063 177.442 168.136 178.19C168.19 178.722 168.401 179.228 168.744 179.635L174.955 187.024L174.665 188.199C174.516 188.804 174.555 189.439 174.78 190.021C175.478 191.838 176.996 195.816 176.973 196.024C176.942 196.291 165.409 196.024 163.579 193.915C161.749 191.804 155.155 177.119 155.155 177.119C155.155 177.119 152.164 171.799 148.767 171.493C145.371 171.187 140.465 171.425 140.465 171.425L140.468 171.414Z" fill="#662B15"/>
<path d="M141.384 168.465L140.99 172.809L142.036 175.671C142.036 175.671 143.647 173.233 145.688 172.93C147.73 172.626 152.889 174.423 152.889 174.423L149.976 171.181L141.384 168.468V168.465Z" fill="#56200F"/>
<path d="M183.74 174.785C186.169 177.948 188.461 181.215 190.603 184.578C188.171 181.418 185.883 178.148 183.74 174.785Z" fill="#4C1809"/>
<path d="M165.507 231.079C165.119 234.172 167.09 236.584 168.085 237.835C169.404 239.511 167.483 241.968 167.821 245.044C168.167 248.123 170.666 248.646 172.57 252.374C174.467 256.094 174.355 264.022 174.355 264.022C174.355 264.022 174.636 268.608 190.193 266.401C205.744 264.199 207.802 258.54 207.802 258.54C208.963 255.644 205.204 249.829 204.338 247.277C203.469 244.724 205.78 239.975 204.931 237.191C204.09 234.405 200.025 231.248 199.856 229.707C199.687 228.172 200.458 222.543 200.458 222.543C200.458 222.543 199.218 224.258 193.808 226.493C187.297 229.184 178.766 231.658 174.895 231.79C171.569 231.906 166.367 231.388 165.504 231.082L165.507 231.079Z" fill="#990038"/>
<path d="M111.977 172.798C111.977 172.798 148.089 153.873 147.53 162.448C147.518 162.603 146.931 166.182 147.693 167.675C148.053 168.381 151.092 172.421 151.092 172.421C151.092 172.421 147.243 169.615 143.579 172.511C139.916 175.407 125.324 183.667 118.239 179.847C111.153 176.026 111.974 172.798 111.974 172.798H111.977Z" fill="#FF884D"/>
<path d="M108.4 174.41C108.4 174.41 88.5615 189.185 80.2729 194.173C79.958 194.361 79.8146 194.78 79.9439 195.126C80.7509 197.277 83.5343 204.345 85.6683 205.554C88.1931 206.985 108.847 188.403 111.172 177.078L108.4 174.41Z" fill="#FF884D"/>
<path d="M114.388 174.386C114.388 174.386 130.279 193.341 137.19 200.112C137.451 200.368 137.496 200.809 137.288 201.113C136.006 203.019 131.665 209.252 129.309 209.935C126.523 210.745 110.719 187.895 111.07 176.34L114.385 174.383L114.388 174.386Z" fill="#FF884D"/>
<path d="M115.007 174.598C115.209 172.87 113.994 171.309 112.293 171.109C110.592 170.91 109.049 172.149 108.847 173.876C108.644 175.604 109.859 177.165 111.561 177.365C113.262 177.564 114.805 176.325 115.007 174.598Z" fill="#063F2F"/>
<path d="M114.913 174.207C115.116 172.48 113.901 170.918 112.199 170.719C110.498 170.52 108.955 171.758 108.753 173.486C108.551 175.213 109.766 176.775 111.467 176.974C113.168 177.173 114.711 175.934 114.913 174.207Z" fill="#0C513F"/>
<path d="M113.667 173.198C113.795 172.106 113.027 171.118 111.952 170.993C110.877 170.867 109.902 171.65 109.775 172.742C109.647 173.834 110.414 174.821 111.489 174.947C112.564 175.073 113.539 174.289 113.667 173.198Z" fill="#10684F"/>
<path d="M205.483 139.965L123.022 88.1921C121.087 86.9775 120.472 84.447 121.627 82.4789L164.56 9.48727C165.735 7.49104 168.299 6.81345 170.307 7.97183L258.31 58.7744C260.41 59.9862 261.057 62.7135 259.73 64.7406L211.255 138.702C209.995 140.625 207.428 141.185 205.483 139.962V139.965Z" fill="#D8BE73"/>
<path d="M154.52 15.8519L183.862 9.51172L197.962 17.6541L146.982 28.6699L154.52 15.8519Z" fill="#990038"/>
<path d="M200.928 130.916L210.99 128.742L209.318 131.295C208.058 133.218 205.491 133.781 203.543 132.558L200.928 130.916Z" fill="#990038"/>
<path d="M186.422 121.811L220.335 114.484L213.506 124.907L197.022 128.466L186.422 121.811Z" fill="#990038"/>
<path d="M170.082 111.551L230.863 98.418L222.847 110.646L182.521 119.359L170.082 111.551Z" fill="#990038"/>
<path d="M153.688 101.259L241.426 82.3086L233.376 94.584L166.182 109.103L153.688 101.259Z" fill="#990038"/>
<path d="M137.678 91.2044L251.738 66.5664L243.942 78.465L149.784 98.8097L137.678 91.2044Z" fill="#990038"/>
<path d="M121.453 81.0186L256.924 51.75C258.572 53.0883 258.993 55.495 257.79 57.3366L254.256 62.7264L133.779 88.7533L121.453 81.0158V81.0186Z" fill="#990038"/>
<path d="M124.996 66.0465L239.093 41.3945L252.847 49.3373L119.218 78.2038C118.97 77.1748 119.105 76.053 119.682 75.0717L124.99 66.0465H124.996Z" fill="#990038"/>
<path d="M134.943 49.1396L220.488 30.6562L234.943 39.001L127.217 62.2726L134.943 49.1396Z" fill="#990038"/>
<path d="M144.761 32.4415H144.767L202.117 20.0508L216.338 28.2634L137.164 45.3635L144.761 32.4415Z" fill="#990038"/>
<path d="M168.368 0.565576L179.707 7.11377L156.742 12.0734L162.618 2.08102C163.794 0.0847938 166.358 -0.592799 168.368 0.565576Z" fill="#990038"/>
<path d="M197.023 128.47L213.508 124.91L210.989 128.745L200.929 130.919L197.023 128.47Z" fill="#FFB3CE"/>
<path d="M133.779 88.7573L254.256 62.7305L251.74 66.5711L137.679 91.209L133.779 88.7573Z" fill="#FFB3CE"/>
<path d="M149.785 98.8134L243.942 78.4688L241.426 82.3094L153.688 101.259L149.785 98.8134Z" fill="#FFB3CE"/>
<path d="M166.182 109.105L233.376 94.5859L230.862 98.4238L170.081 111.557L166.182 109.105Z" fill="#FFB3CE"/>
<path d="M182.521 119.362L222.848 110.648L220.337 114.486L186.424 121.813L182.521 119.362Z" fill="#FFB3CE"/>
<path d="M119.221 78.2064L252.85 49.3398L256.37 51.3698C256.567 51.4851 256.752 51.6116 256.927 51.7522L121.456 81.0208L121.085 80.7875C120.118 80.1773 119.477 79.2411 119.226 78.2092L119.221 78.2064Z" fill="#FFB3CE"/>
<path d="M127.217 62.2754L234.943 39.0039L239.093 41.3994L124.996 66.0514L127.217 62.2754Z" fill="#FFB3CE"/>
<path d="M137.165 45.3657L216.339 28.2656L220.489 30.6583L134.943 49.1417L137.165 45.3657Z" fill="#FFB3CE"/>
<path d="M146.983 28.6681L197.963 17.6523L202.118 20.0506L144.768 32.4413L146.983 28.6681Z" fill="#FFB3CE"/>
<path d="M156.743 12.0768L179.708 7.11719L183.863 9.51266L154.521 15.8528L156.743 12.0768Z" fill="#FFB3CE"/>
<path d="M176.522 74.4059C173.021 77.105 169.009 79.4218 166.018 78.9185C164.468 78.657 163.276 77.6673 162.568 76.0563C161.983 74.7292 162.05 73.4078 162.762 72.2382C165.914 67.0452 181.608 65.8671 183.388 65.749L185.867 65.5859L184.175 67.405C183.551 68.077 180.34 71.465 176.525 74.4059H176.522ZM165.464 72.1847C165.011 72.5334 164.668 72.8933 164.446 73.2616C164.069 73.8829 164.047 74.5184 164.373 75.2606C164.82 76.2756 165.447 76.821 166.347 76.9729C168.438 77.3271 172.006 75.5502 176.392 71.9654C178.13 70.5456 179.702 69.0835 180.843 67.9702C179.232 68.1501 177.059 68.4397 174.812 68.8755C170.376 69.7386 167.148 70.8886 165.464 72.1847Z" fill="#FFC501"/>
<path d="M184.587 68.1746L183.499 65.9393C182.717 64.3367 175.955 50.1213 178.904 44.8103C179.568 43.6125 180.681 42.9012 182.124 42.7494C183.873 42.5666 185.323 43.1121 186.321 44.3267C188.084 46.4775 188.436 50.7877 187.37 57.1306C186.6 61.7023 185.382 65.6357 185.329 65.7988L184.589 68.1717L184.587 68.1746ZM181.157 45.1392C180.946 45.3023 180.771 45.5103 180.628 45.769C179.644 47.5431 180.116 51.5103 181.958 56.9451C182.692 59.1128 183.518 61.1428 184.162 62.6329C184.561 61.0865 185.051 58.9975 185.425 56.7848C186.364 51.201 186.139 47.2198 184.792 45.5778C184.213 44.8721 183.431 44.5966 182.326 44.7118C181.848 44.7625 181.463 44.9002 181.154 45.1364L181.157 45.1392Z" fill="#FFC501"/>
<path d="M209.631 24.0608L159.471 104.898L161.145 105.938L211.306 25.1L209.631 24.0608Z" fill="#FFC501"/>
<path d="M233.411 94.7564L139.428 41.5471L140.398 39.832L234.547 92.9935L233.411 94.7564Z" fill="#FFC501"/>
</svg>
